<?xml version="1.0" encoding="UTF-8"?>
<svg xmlns="http://www.w3.org/2000/svg" width="1200" height="420" viewBox="0 0 1200 420">
<defs>
<filter id="shadow" x="-10%" y="-20%" width="120%" height="150%">
<feDropShadow dx="0" dy="2" stdDeviation="2" flood-color="#1F2937" flood-opacity="0.16"/>
</filter>
<marker id="arrow" viewBox="0 0 10 10" refX="8" refY="5" markerWidth="6" markerHeight="6" orient="auto-start-reverse">
<path d="M 0 0 L 10 5 L 0 10 z" fill="#5D6676"/>
</marker>
</defs>
<rect width="1200" height="420" fill="#FFFFFF"/>
<text x="28" y="36" fill="#253041" font-family="Arial, sans-serif" font-size="21" font-weight="700">mHC explicit recompute schedule — high-priority mode: post</text>
<text x="28" y="60" fill="#778195" font-family="Arial, sans-serif" font-size="13">Illustrative steady-state ordering; block lengths are not to scale</text>
<line x1="145" y1="87" x2="1160" y2="87" stroke="#253041" stroke-width="1.5" marker-end="url(#arrow)"/>
<text x="137" y="92" fill="#778195" font-family="Arial, sans-serif" font-size="12" text-anchor="end">time</text>
<rect x="710" y="25" width="14" height="14" rx="2" fill="#4777D2"/>
<text x="730" y="37" fill="#778195" font-family="Arial, sans-serif" font-size="11">normal</text>
<rect x="860" y="25" width="14" height="14" rx="2" fill="#D65B5B"/>
<text x="880" y="37" fill="#778195" font-family="Arial, sans-serif" font-size="11">communication</text>
<rect x="1010" y="25" width="14" height="14" rx="2" fill="#3F9F68"/>
<text x="1030" y="37" fill="#778195" font-family="Arial, sans-serif" font-size="11">high priority</text>
<text x="132" y="155" fill="#253041" font-family="Arial, sans-serif" font-size="10" font-weight="600" text-anchor="end"><tspan x="132" y="147">Normal compute</tspan><tspan x="132" y="163">stream</tspan></text>
<line x1="145" y1="150" x2="1160" y2="150" stroke="#D7DCE5" stroke-width="2"/>
<text x="132" y="260" fill="#253041" font-family="Arial, sans-serif" font-size="10" font-weight="600" text-anchor="end"><tspan x="132" y="252">Communication</tspan><tspan x="132" y="268">stream</tspan></text>
<line x1="145" y1="255" x2="1160" y2="255" stroke="#D7DCE5" stroke-width="2"/>
<text x="132" y="365" fill="#253041" font-family="Arial, sans-serif" font-size="10" font-weight="600" text-anchor="end"><tspan x="132" y="357">High-priority compute</tspan><tspan x="132" y="373">stream</tspan></text>
<line x1="145" y1="360" x2="1160" y2="360" stroke="#D7DCE5" stroke-width="2"/>
<polyline points="272,150 277.5,150 277.5,360 280,360" fill="none" stroke="#5D6676" stroke-width="1.7" stroke-dasharray="4 3" marker-end="url(#arrow)"/>
<polyline points="392,360 397.5,360 397.5,255 400,255" fill="none" stroke="#5D6676" stroke-width="1.7" stroke-dasharray="4 3" marker-end="url(#arrow)"/>
<polyline points="497,255 505,255 505,150 510,150" fill="none" stroke="#5D6676" stroke-width="1.7" stroke-dasharray="4 3" marker-end="url(#arrow)"/>
<polyline points="757,150 765,150 765,255 770,255" fill="none" stroke="#5D6676" stroke-width="1.7" stroke-dasharray="4 3" marker-end="url(#arrow)"/>
<polyline points="887,255 895,255 895,360 900,360" fill="none" stroke="#5D6676" stroke-width="1.7" stroke-dasharray="4 3" marker-end="url(#arrow)"/>
<polyline points="1012,360 1017.5,360 1017.5,150 1020,150" fill="none" stroke="#5D6676" stroke-width="1.7" stroke-dasharray="4 3" marker-end="url(#arrow)"/>
<rect x="145" y="121" width="125" height="58" rx="7" fill="#4777D2" stroke="#FFFFFF" stroke-width="1.2" filter="url(#shadow)"/>
<text x="207.5" y="155" fill="#FFFFFF" font-family="Arial, sans-serif" font-size="12" font-weight="700" text-anchor="middle"><tspan x="207.5" y="147">mHC</tspan><tspan x="207.5" y="163">Recompute.B</tspan></text>
<rect x="405" y="121" width="90" height="58" rx="7" fill="#4777D2" stroke="#FFFFFF" stroke-width="1.2" filter="url(#shadow)"/>
<text x="450" y="155" fill="#FFFFFF" font-family="Arial, sans-serif" font-size="12" font-weight="700" text-anchor="middle"><tspan x="450" y="147">Attn.F</tspan><tspan x="450" y="163">(other MB)</tspan></text>
<rect x="515" y="121" width="115" height="58" rx="7" fill="#4777D2" stroke="#FFFFFF" stroke-width="1.2" filter="url(#shadow)"/>
<text x="572.5" y="155" fill="#FFFFFF" font-family="Arial, sans-serif" font-size="12" font-weight="700" text-anchor="middle">MLP B/W</text>
<rect x="520" y="226" width="155" height="58" rx="7" fill="#D65B5B" stroke="#FFFFFF" stroke-width="1.2" filter="url(#shadow)"/>
<text x="597.5" y="260" fill="#FFFFFF" font-family="Arial, sans-serif" font-size="12" font-weight="700" text-anchor="middle">Dispatch F/B</text>
<rect x="650" y="121" width="105" height="58" rx="7" fill="#4777D2" stroke="#FFFFFF" stroke-width="1.2" filter="url(#shadow)"/>
<text x="702.5" y="155" fill="#FFFFFF" font-family="Arial, sans-serif" font-size="12" font-weight="700" text-anchor="middle">MLP.F</text>
<rect x="1015" y="226" width="145" height="58" rx="7" fill="#D65B5B" stroke="#FFFFFF" stroke-width="1.2" filter="url(#shadow)"/>
<text x="1087.5" y="260" fill="#FFFFFF" font-family="Arial, sans-serif" font-size="12" font-weight="700" text-anchor="middle">PP Send/Recv</text>
<rect x="1025" y="121" width="135" height="58" rx="7" fill="#4777D2" stroke="#FFFFFF" stroke-width="1.2" filter="url(#shadow)"/>
<text x="1092.5" y="155" fill="#FFFFFF" font-family="Arial, sans-serif" font-size="12" font-weight="700" text-anchor="middle"><tspan x="1092.5" y="147">Next-layer</tspan><tspan x="1092.5" y="163">compute</tspan></text>
<rect x="285" y="331" width="105" height="58" rx="7" fill="#3F9F68" stroke="#FFFFFF" stroke-width="1.2" filter="url(#shadow)"/>
<text x="337.5" y="365" fill="#FFFFFF" font-family="Arial, sans-serif" font-size="12" font-weight="700" text-anchor="middle">mHC Post.B</text>
<rect x="405" y="226" width="90" height="58" rx="7" fill="#D65B5B" stroke="#FFFFFF" stroke-width="1.2" filter="url(#shadow)"/>
<text x="450" y="260" fill="#FFFFFF" font-family="Arial, sans-serif" font-size="12" font-weight="700" text-anchor="middle">Combine.B</text>
<rect x="775" y="226" width="110" height="58" rx="7" fill="#D65B5B" stroke="#FFFFFF" stroke-width="1.2" filter="url(#shadow)"/>
<text x="830" y="260" fill="#FFFFFF" font-family="Arial, sans-serif" font-size="12" font-weight="700" text-anchor="middle">Combine.F</text>
<rect x="905" y="331" width="105" height="58" rx="7" fill="#3F9F68" stroke="#FFFFFF" stroke-width="1.2" filter="url(#shadow)"/>
<text x="957.5" y="365" fill="#FFFFFF" font-family="Arial, sans-serif" font-size="12" font-weight="700" text-anchor="middle">mHC Post.F</text>
</svg>
